<svg xmlns="http://www.w3.org/2000/svg" viewBox="0 0 100 100">
  <rect width="100" height="100" rx="16" fill="#f2ecdf" />
  <g stroke="#241f19" stroke-width="5.5" stroke-linecap="round" stroke-linejoin="round">
    <path fill="#f2ecdf" d="M7 63c-.6-8.6 18-14.7 42-14.9 24-.2 42.6 6.1 42 14.9-.6 9.1-19 15.7-42.4 15.4C25.6 78.1 7.6 71.5 7 63Z" />
    <path fill="#f2ecdf" d="M25 56C22.6 42 29 28.4 39 25c6.6-2.3 14-2.1 20.4.6C69.6 30 76.4 42 74 56.4c-6.4 4.2-15.4 6.1-25.4 6.1-10 0-18.4-1.9-23.6-6.5Z" />
    <path fill="#c4432c" d="M23.8 45.6c6.6 6.1 15.2 8.8 24.8 8.8 9.6 0 18.2-2.6 24.8-8.6l.6 10.6c-6.4 5.8-15.4 8-25.2 8-9.8 0-18.6-2.6-24.8-8.4Z" />
  </g>
</svg>
